<?xml version="1.0" encoding="utf-8" ?>
<svg xmlns="http://www.w3.org/2000/svg" xmlns:ev="http://www.w3.org/2001/xml-events" xmlns:xlink="http://www.w3.org/1999/xlink" baseProfile="full" height="298.10332629666823mm" version="1.1" width="80mm">
  <defs>
    <style type="text/css"><![CDATA[.boundary {
	stroke: red;
	fill: none;
}

.l {
	stroke: black;
	stroke-width: 0.15mm;
}

.label {
	font-family: "arial";
	font-size: 5mm;
}
]]></style>
  </defs>
  <rect class="boundary" height="298.10332629666823mm" width="80mm" x="0mm" y="0mm"/>
  <line class="l" x1="0mm" x2="35mm" y1="12.0mm" y2="12.0mm"/>
  <line class="l" x1="44mm" x2="80mm" y1="12.0mm" y2="12.0mm"/>
  <line class="l" x1="0mm" x2="35mm" y1="32.12239261096252mm" y2="29.06028938755518mm"/>
  <line class="l" x1="44mm" x2="80mm" y1="28.272891415821864mm" y2="25.123299528888598mm"/>
  <line class="l" x1="0mm" x2="35mm" y1="52.555205562946945mm" y2="46.38376123815067mm"/>
  <line class="l" x1="44mm" x2="80mm" y1="44.79681841177449mm" y2="38.449047106269745mm"/>
  <line class="l" x1="0mm" x2="35mm" y1="73.62831425915823mm" y2="64.25009252406892mm"/>
  <line class="l" x1="44mm" x2="80mm" y1="61.83854979218882mm" y2="52.192378864668406mm"/>
  <line class="l" x1="0mm" x2="35mm" y1="95.71315388122653mm" y2="82.97419568190945mm"/>
  <line class="l" x1="44mm" x2="80mm" y1="79.69846357351364mm" y2="66.59553513993035mm"/>
  <line class="l" x1="0mm" x2="35mm" y1="119.25076137564969mm" y2="102.92999334022474mm"/>
  <line class="l" x1="44mm" x2="80mm" y1="98.73322441682974mm" y2="81.94614872324979mm"/>
  <line class="l" x1="0mm" x2="35mm" y1="144.79056191361389mm" y2="124.583302491977mm"/>
  <line class="l" x1="44mm" x2="80mm" y1="119.38715006927036mm" y2="98.60254037844385mm"/>
  <line class="l" x1="0mm" x2="35mm" y1="173.04773378823324mm" y2="148.5404699508934mm"/>
  <line class="l" x1="44mm" x2="80mm" y1="142.23860210700602mm" y2="117.03113073145646mm"/>
  <line class="l" x1="0mm" x2="35mm" y1="204.99291517077435mm" y2="175.62442807956955mm"/>
  <line class="l" x1="44mm" x2="80mm" y1="168.07253139897404mm" y2="137.86494467659196mm"/>
  <line class="l" x1="0mm" x2="35mm" y1="241.99999999999997mm" y2="206.99999999999997mm"/>
  <line class="l" x1="44mm" x2="80mm" y1="197.99999999999997mm" y2="161.99999999999997mm"/>
  <line class="l" x1="0mm" x2="35mm" y1="286.10332629666823mm" y2="244.3919505558709mm"/>
  <line class="l" x1="44mm" x2="80mm" y1="233.66616822252303mm" y2="190.76303888913145mm"/>
  <text class="label" x="37mm" y="14.0mm">0</text>
  <text class="label" x="37mm" y="30.622846069925558mm">5</text>
  <text class="label" x="37mm" y="47.50212633460835mm">10</text>
  <text class="label" x="37mm" y="64.91034656191331mm">15</text>
  <text class="label" x="37mm" y="83.15434451057844mm">20</text>
  <text class="label" x="37mm" y="102.59845504944974mm">25</text>
  <text class="label" x="37mm" y="123.69655114602887mm">30</text>
  <text class="label" x="37mm" y="147.03943225984486mm">35</text>
  <text class="label" x="37mm" y="173.42892992368317mm">40</text>
  <text class="label" x="37mm" y="203.99999999999997mm">45</text>
  <text class="label" x="37mm" y="240.43318259289987mm">50</text>
  <line class="l" x1="0mm" x2="80mm" y1="16.014664933490046mm" y2="14.618259739232638mm"/>
  <line class="l" x1="0mm" x2="80mm" y1="20.031776983101977mm" y2="17.23811542376216mm"/>
  <line class="l" x1="0mm" x2="80mm" y1="24.05378923509948mm" y2="19.861166892456183mm"/>
  <line class="l" x1="0mm" x2="80mm" y1="28.083166747007397mm" y2="22.48902179152656mm"/>
  <line class="l" x1="0mm" x2="80mm" y1="36.17397411110559mm" y2="27.76563528985147mm"/>
  <line class="l" x1="0mm" x2="80mm" y1="40.24044900766806mm" y2="30.41768413543569mm"/>
  <line class="l" x1="0mm" x2="80mm" y1="44.32439198155003mm" y2="33.08112520535872mm"/>
  <line class="l" x1="0mm" x2="80mm" y1="48.42842127464334mm" y2="35.75766604868044mm"/>
  <line class="l" x1="0mm" x2="80mm" y1="56.70747110167525mm" y2="41.15704637065777mm"/>
  <line class="l" x1="0mm" x2="80mm" y1="60.88800918410509mm" y2="43.883484250503315mm"/>
  <line class="l" x1="0mm" x2="80mm" y1="65.09968395887952mm" y2="46.63022866883447mm"/>
  <line class="l" x1="0mm" x2="80mm" y1="69.34544065393156mm" y2="49.39920042647711mm"/>
  <line class="l" x1="0mm" x2="80mm" y1="77.95143872452583mm" y2="55.01180786382119mm"/>
  <line class="l" x1="0mm" x2="80mm" y1="82.3180567354919mm" y2="57.85960221879906mm"/>
  <line class="l" x1="0mm" x2="80mm" y1="86.73153013356844mm" y2="60.73795443493594mm"/>
  <line class="l" x1="0mm" x2="80mm" y1="91.19535105662301mm" y2="63.64914199344979mm"/>
  <line class="l" x1="0mm" x2="80mm" y1="100.28872805814562mm" y2="69.57960525531237mm"/>
  <line class="l" x1="0mm" x2="80mm" y1="104.92603194208607mm" y2="72.60393387527353mm"/>
  <line class="l" x1="0mm" x2="80mm" y1="109.6292077282091mm" y2="75.67122243144071mm"/>
  <line class="l" x1="0mm" x2="80mm" y1="114.40259762096332mm" y2="78.78430279628043mm"/>
  <line class="l" x1="0mm" x2="80mm" y1="124.17849537014811mm" y2="85.1598882848792mm"/>
  <line class="l" x1="0mm" x2="80mm" y1="129.1908533837186mm" y2="88.42881742416432mm"/>
  <line class="l" x1="0mm" x2="80mm" y1="134.29316928214013mm" y2="91.75641474922182mm"/>
  <line class="l" x1="0mm" x2="80mm" y1="139.49108183413688mm" y2="95.14635771791535mm"/>
  <line class="l" x1="0mm" x2="80mm" y1="150.19794237633886mm" y2="102.12909285413404mm"/>
  <line class="l" x1="0mm" x2="80mm" y1="155.71995093914532mm" y2="105.73040278639913mm"/>
  <line class="l" x1="0mm" x2="80mm" y1="161.36374643542743mm" y2="109.41113897962657mm"/>
  <line class="l" x1="0mm" x2="80mm" y1="167.13695887375815mm" y2="113.17627752636402mm"/>
  <line class="l" x1="0mm" x2="80mm" y1="179.104781441233mm" y2="120.98137920080414mm"/>
  <line class="l" x1="0mm" x2="80mm" y1="185.31743152364265mm" y2="125.03310751541913mm"/>
  <line class="l" x1="0mm" x2="80mm" y1="191.69569409654503mm" y2="129.19284397600762mm"/>
  <line class="l" x1="0mm" x2="80mm" y1="198.25032763485163mm" y2="133.46760497925106mm"/>
  <line class="l" x1="0mm" x2="80mm" y1="211.93594969773213mm" y2="142.393010672434mm"/>
  <line class="l" x1="0mm" x2="80mm" y1="219.09293018850317mm" y2="147.060606644676mm"/>
  <line class="l" x1="0mm" x2="80mm" y1="226.4784698116622mm" y2="151.87726292064926mm"/>
  <line class="l" x1="0mm" x2="80mm" y1="234.108418205627mm" y2="156.85331622106108mm"/>
  <line class="l" x1="0mm" x2="80mm" y1="250.17197217183096mm" y2="167.3295470685854mm"/>
  <line class="l" x1="0mm" x2="80mm" y1="258.644803305677mm" y2="172.8553065037024mm"/>
  <line class="l" x1="0mm" x2="80mm" y1="267.44087841071433mm" y2="178.59187722437892mm"/>
  <line class="l" x1="0mm" x2="80mm" y1="276.5847336608321mm" y2="184.55526108315138mm"/>
  <line class="l" x1="0mm" x2="12mm" y1="14.007179591874522mm" y2="13.902457178385417mm"/>
  <line class="l" x1="68mm" x2="80mm" y1="13.413752582102923mm" y2="13.309030168613818mm"/>
  <line class="l" x1="0mm" x2="12mm" y1="18.022761960912995mm" y2="17.70853090208275mm"/>
  <line class="l" x1="68mm" x2="80mm" y1="16.242119294208283mm" y2="15.927888235378038mm"/>
  <line class="l" x1="0mm" x2="12mm" y1="22.042016868957774mm" y2="21.51808555405563mm"/>
  <line class="l" x1="68mm" x2="80mm" y1="19.073072751178955mm" y2="18.54914143627681mm"/>
  <line class="l" x1="0mm" x2="12mm" y1="26.06740263461139mm" y2="25.33345119280558mm"/>
  <line class="l" x1="68mm" x2="80mm" y1="21.90834446437846mm" y2="21.174393022572644mm"/>
  <line class="l" x1="0mm" x2="12mm" y1="30.101392569662245mm" y2="29.15697208776682mm"/>
  <line class="l" x1="68mm" x2="80mm" y1="24.74967650558819mm" y2="23.80525602369277mm"/>
  <line class="l" x1="0mm" x2="12mm" y1="34.14648108543388mm" y2="32.99101250706342mm"/>
  <line class="l" x1="68mm" x2="80mm" y1="27.59882580800125mm" y2="26.44335722963079mm"/>
  <line class="l" x1="0mm" x2="12mm" y1="38.20518990937846mm" y2="36.83796260975872mm"/>
  <line class="l" x1="68mm" x2="80mm" y1="30.45756854486657mm" y2="29.090341245246822mm"/>
  <line class="l" x1="0mm" x2="12mm" y1="42.28007444510104mm" y2="40.70024447405229mm"/>
  <line class="l" x1="68mm" x2="80mm" y1="33.327704609158125mm" y2="31.747874638109376mm"/>
  <line class="l" x1="0mm" x2="12mm" y1="46.37373031029939mm" y2="44.580318294109865mm"/>
  <line class="l" x1="68mm" x2="80mm" y1="36.21106221855871mm" y2="34.417650202369174mm"/>
  <line class="l" x1="0mm" x2="12mm" y1="50.4888000887265mm" y2="48.480688779749464mm"/>
  <line class="l" x1="68mm" x2="80mm" y1="39.10950267118997mm" y2="37.10139136221294mm"/>
  <line class="l" x1="0mm" x2="12mm" y1="54.62798033425291mm" y2="52.4039117950745mm"/>
  <line class="l" x1="68mm" x2="80mm" y1="42.02492527890857mm" y2="39.80085673973016mm"/>
  <line class="l" x1="0mm" x2="12mm" y1="58.794028867450855mm" y2="56.352601274366464mm"/>
  <line class="l" x1="68mm" x2="80mm" y1="44.9592725066393mm" y2="42.51784491355491mm"/>
  <line class="l" x1="0mm" x2="12mm" y1="62.98977240787618mm" y2="60.3294364561609mm"/>
  <line class="l" x1="68mm" x2="80mm" y1="47.914535348156264mm" y2="45.25419939644099mm"/>
  <line class="l" x1="0mm" x2="12mm" y1="67.21811458842669mm" y2="64.3371694794653mm"/>
  <line class="l" x1="68mm" x2="80mm" y1="50.8927589709788mm" y2="48.011813862017405mm"/>
  <line class="l" x1="0mm" x2="12mm" y1="71.48204440185478mm" y2="68.37863338958408mm"/>
  <line class="l" x1="68mm" x2="80mm" y1="53.896048665654234mm" y2="50.79263765338355mm"/>
  <line class="l" x1="0mm" x2="12mm" y1="75.78464513376284mm" y2="72.45675060504477mm"/>
  <line class="l" x1="68mm" x2="80mm" y1="56.92657613769382mm" y2="53.59868160897576mm"/>
  <line class="l" x1="0mm" x2="12mm" y1="80.12910384127846mm" y2="76.5745419017335mm"/>
  <line class="l" x1="68mm" x2="80mm" y1="59.98658618385701mm" y2="56.43202424431204mm"/>
  <line class="l" x1="0mm" x2="12mm" y1="84.51872144216621mm" y2="80.7351359756184mm"/>
  <line class="l" x1="68mm" x2="80mm" y1="63.07840379839533mm" y2="59.29481833184752mm"/>
  <line class="l" x1="0mm" x2="12mm" y1="88.95692348547682mm" y2="84.94177965145195mm"/>
  <line class="l" x1="68mm" x2="80mm" y1="66.20444175933585mm" y2="62.189297925310974mm"/>
  <line class="l" x1="0mm" x2="12mm" y1="93.44727168206055mm" y2="89.19784881169217mm"/>
  <line class="l" x1="68mm" x2="80mm" y1="69.36720874997307mm" y2="65.1177858796047mm"/>
  <line class="l" x1="0mm" x2="12mm" y1="97.99347628150508mm" y2="93.50686012768742mm"/>
  <line class="l" x1="68mm" x2="80mm" y1="72.56931807653837mm" y2="68.0827019227207mm"/>
  <line class="l" x1="0mm" x2="12mm" y1="102.59940939143675mm" y2="97.87248368405744mm"/>
  <line class="l" x1="68mm" x2="80mm" y1="75.81349704962068mm" y2="71.08657134224137mm"/>
  <line class="l" x1="0mm" x2="12mm" y1="107.26911934581187mm" y2="102.29855659733472mm"/>
  <line class="l" x1="68mm" x2="80mm" y1="79.1025971044414mm" y2="74.13203435596427mm"/>
  <line class="l" x1="0mm" x2="12mm" y1="112.00684624101471mm" y2="106.78909774148352mm"/>
  <line class="l" x1="68mm" x2="80mm" y1="82.43960474367124mm" y2="77.22185624414003mm"/>
  <line class="l" x1="0mm" x2="12mm" y1="116.81703877249447mm" y2="111.34832370610346mm"/>
  <line class="l" x1="68mm" x2="80mm" y1="85.82765339627872mm" y2="80.3589383298877mm"/>
  <line class="l" x1="0mm" x2="12mm" y1="121.70437252057684mm" y2="115.98066612819892mm"/>
  <line class="l" x1="68mm" x2="80mm" y1="89.27003629710195mm" y2="83.54632990472403mm"/>
  <line class="l" x1="0mm" x2="12mm" y1="126.67376985228923mm" y2="120.69079055564805mm"/>
  <line class="l" x1="68mm" x2="80mm" y1="92.7702205046559mm" y2="86.78724120801472mm"/>
  <line class="l" x1="0mm" x2="12mm" y1="131.73042162690163mm" y2="125.48361702028068mm"/>
  <line class="l" x1="68mm" x2="80mm" y1="96.33186218938289mm" y2="90.08505758276193mm"/>
  <line class="l" x1="0mm" x2="12mm" y1="136.87981091684048mm" y2="130.36434252117925mm"/>
  <line class="l" x1="68mm" x2="80mm" y1="99.95882334142678mm" y2="93.44335494576553mm"/>
  <line class="l" x1="0mm" x2="12mm" y1="142.12773898318713mm" y2="135.33846564493388mm"/>
  <line class="l" x1="68mm" x2="80mm" y1="103.65519006641877mm" y2="96.86591672816553mm"/>
  <line class="l" x1="0mm" x2="12mm" y1="147.48035377672673mm" y2="140.4118135796801mm"/>
  <line class="l" x1="68mm" x2="80mm" y1="107.42529266012926mm" y2="100.35675246308264mm"/>
  <line class="l" x1="0mm" x2="12mm" y1="152.94418127218432mm" y2="145.59057181450515mm"/>
  <line class="l" x1="68mm" x2="80mm" y1="111.27372767866896mm" y2="103.92011822098978mm"/>
  <line class="l" x1="0mm" x2="12mm" y1="158.52615998572344mm" y2="150.88131685603352mm"/>
  <line class="l" x1="68mm" x2="80mm" y1="115.2053822508139mm" y2="107.56053912112398mm"/>
  <line class="l" x1="0mm" x2="12mm" y1="164.23367907500906mm" y2="156.29105234066074mm"/>
  <line class="l" x1="68mm" x2="80mm" y1="119.22546091370202mm" y2="111.28283417935373mm"/>
  <line class="l" x1="0mm" x2="12mm" y1="170.07462047837103mm" y2="161.8272489751517mm"/>
  <line class="l" x1="68mm" x2="80mm" y1="123.33951529346133mm" y2="115.09214379024198mm"/>
  <line class="l" x1="0mm" x2="12mm" y1="176.05740561631126mm" y2="167.4978888015472mm"/>
  <line class="l" x1="68mm" x2="80mm" y1="127.55347699931488mm" y2="118.99396018455082mm"/>
  <line class="l" x1="0mm" x2="12mm" y1="182.19104725655214mm" y2="173.31151435621027mm"/>
  <line class="l" x1="68mm" x2="80mm" y1="131.87369415461498mm" y2="122.99416125427312mm"/>
  <line class="l" x1="0mm" x2="12mm" y1="188.48520723516089mm" y2="179.27728337941335mm"/>
  <line class="l" x1="68mm" x2="80mm" y1="136.30697205259156mm" y2="127.09904819684405mm"/>
  <line class="l" x1="0mm" x2="12mm" y1="194.95026083360054mm" y2="185.4050298335866mm"/>
  <line class="l" x1="68mm" x2="80mm" y1="140.8606185001882mm" y2="131.31538750017427mm"/>
  <line class="l" x1="0mm" x2="12mm" y1="201.59736873802402mm" y2="191.70533210821407mm"/>
  <line class="l" x1="68mm" x2="80mm" y1="145.5424945024343mm" y2="135.65045787262437mm"/>
  <line class="l" x1="0mm" x2="12mm" y1="208.43855765659728mm" y2="198.1895894310357mm"/>
  <line class="l" x1="68mm" x2="80mm" y1="150.36107104508156mm" y2="140.11210281951998mm"/>
  <line class="l" x1="0mm" x2="12mm" y1="215.4868108478671mm" y2="204.87010767319578mm"/>
  <line class="l" x1="68mm" x2="80mm" y1="155.32549285806292mm" y2="144.7087896833916mm"/>
  <line class="l" x1="0mm" x2="12mm" y1="222.7561700240074mm" y2="211.76019593579832mm"/>
  <line class="l" x1="68mm" x2="80mm" y1="160.4456501908226mm" y2="149.44967610261352mm"/>
  <line class="l" x1="0mm" x2="12mm" y1="230.26185034442227mm" y2="218.87427554384374mm"/>
  <line class="l" x1="68mm" x2="80mm" y1="165.73225980781046mm" y2="154.34468500723193mm"/>
  <line class="l" x1="0mm" x2="12mm" y1="238.02037051660872mm" y2="226.22800335922042mm"/>
  <line class="l" x1="68mm" x2="80mm" y1="171.1969566247418mm" y2="159.4045894673535mm"/>
  <line class="l" x1="0mm" x2="12mm" y1="246.0497003835888mm" y2="233.8384116679233mm"/>
  <line class="l" x1="68mm" x2="80mm" y1="176.85239766148428mm" y2="164.6411089458188mm"/>
  <line class="l" x1="0mm" x2="12mm" y1="254.36942881462124mm" y2="241.7240673112497mm"/>
  <line class="l" x1="68mm" x2="80mm" y1="182.71238029551583mm" y2="170.0670187921443mm"/>
  <line class="l" x1="0mm" x2="12mm" y1="263.0009552459324mm" y2="249.90525323310115mm"/>
  <line class="l" x1="68mm" x2="80mm" y1="188.79197717322197mm" y2="175.6962751603907mm"/>
  <line class="l" x1="0mm" x2="12mm" y1="271.96770886320314mm" y2="258.4041762268621mm"/>
  <line class="l" x1="68mm" x2="80mm" y1="195.10769059060394mm" y2="181.54415795426291mm"/>
  <line class="l" x1="0mm" x2="12mm" y1="281.295400205884mm" y2="267.24520541253355mm"/>
  <line class="l" x1="68mm" x2="80mm" y1="201.67762971023134mm" y2="187.62743491688087mm"/>
</svg>
