<?xml version="1.0" encoding="utf-8" ?>
<svg xmlns="http://www.w3.org/2000/svg" xmlns:ev="http://www.w3.org/2001/xml-events" xmlns:xlink="http://www.w3.org/1999/xlink" baseProfile="full" height="298.10332629666823mm" version="1.1" width="80mm">
  <defs>
    <style type="text/css"><![CDATA[.boundary {
	stroke: red;
	fill: none;
}

.l {
	stroke: black;
	stroke-width: 0.15mm;
}

.label {
	font-family: "arial";
	font-size: 5mm;
}
]]></style>
  </defs>
  <rect class="boundary" height="298.10332629666823mm" width="80mm" x="0mm" y="0mm"/>
  <line class="l" x1="0mm" x2="35mm" y1="12.0mm" y2="12.0mm"/>
  <line class="l" x1="44mm" x2="80mm" y1="12.0mm" y2="12.0mm"/>
  <line class="l" x1="0mm" x2="35mm" y1="25.123299528888598mm" y2="28.18540275229594mm"/>
  <line class="l" x1="44mm" x2="80mm" y1="28.972800724029256mm" y2="32.12239261096252mm"/>
  <line class="l" x1="0mm" x2="35mm" y1="38.449047106269745mm" y2="44.62049143106602mm"/>
  <line class="l" x1="44mm" x2="80mm" y1="46.2074342574422mm" y2="52.555205562946945mm"/>
  <line class="l" x1="0mm" x2="35mm" y1="52.192378864668406mm" y2="61.5706005997577mm"/>
  <line class="l" x1="44mm" x2="80mm" y1="63.9821433316378mm" y2="73.62831425915823mm"/>
  <line class="l" x1="0mm" x2="35mm" y1="66.59553513993035mm" y2="79.33449333924743mm"/>
  <line class="l" x1="44mm" x2="80mm" y1="82.61022544764326mm" y2="95.71315388122653mm"/>
  <line class="l" x1="0mm" x2="35mm" y1="81.94614872324979mm" y2="98.26691675867475mm"/>
  <line class="l" x1="44mm" x2="80mm" y1="102.46368568206974mm" y2="119.25076137564969mm"/>
  <line class="l" x1="0mm" x2="35mm" y1="98.60254037844385mm" y2="118.80979980008074mm"/>
  <line class="l" x1="44mm" x2="80mm" y1="124.00595222278737mm" y2="144.79056191361389mm"/>
  <line class="l" x1="0mm" x2="35mm" y1="117.03113073145646mm" y2="141.5383945687963mm"/>
  <line class="l" x1="44mm" x2="80mm" y1="147.84026241268367mm" y2="173.04773378823324mm"/>
  <line class="l" x1="0mm" x2="35mm" y1="137.86494467659196mm" y2="167.23343176779676mm"/>
  <line class="l" x1="44mm" x2="80mm" y1="174.78532844839228mm" y2="204.99291517077435mm"/>
  <line class="l" x1="0mm" x2="35mm" y1="161.99999999999997mm" y2="196.99999999999997mm"/>
  <line class="l" x1="44mm" x2="80mm" y1="205.99999999999997mm" y2="241.99999999999997mm"/>
  <line class="l" x1="0mm" x2="35mm" y1="190.76303888913145mm" y2="232.47441462992882mm"/>
  <line class="l" x1="44mm" x2="80mm" y1="243.20019696327668mm" y2="286.10332629666823mm"/>
  <text class="label" x="37mm" y="14.0mm">0</text>
  <text class="label" x="37mm" y="30.622846069925558mm">5</text>
  <text class="label" x="37mm" y="47.50212633460835mm">10</text>
  <text class="label" x="37mm" y="64.91034656191331mm">15</text>
  <text class="label" x="37mm" y="83.15434451057844mm">20</text>
  <text class="label" x="37mm" y="102.59845504944974mm">25</text>
  <text class="label" x="37mm" y="123.69655114602887mm">30</text>
  <text class="label" x="37mm" y="147.03943225984486mm">35</text>
  <text class="label" x="37mm" y="173.42892992368317mm">40</text>
  <text class="label" x="37mm" y="203.99999999999997mm">45</text>
  <text class="label" x="37mm" y="240.43318259289987mm">50</text>
  <line class="l" x1="0mm" x2="80mm" y1="14.618259739232638mm" y2="16.014664933490046mm"/>
  <line class="l" x1="0mm" x2="80mm" y1="17.23811542376216mm" y2="20.031776983101977mm"/>
  <line class="l" x1="0mm" x2="80mm" y1="19.861166892456183mm" y2="24.05378923509948mm"/>
  <line class="l" x1="0mm" x2="80mm" y1="22.48902179152656mm" y2="28.083166747007397mm"/>
  <line class="l" x1="0mm" x2="80mm" y1="27.76563528985147mm" y2="36.17397411110559mm"/>
  <line class="l" x1="0mm" x2="80mm" y1="30.41768413543569mm" y2="40.24044900766806mm"/>
  <line class="l" x1="0mm" x2="80mm" y1="33.08112520535872mm" y2="44.32439198155003mm"/>
  <line class="l" x1="0mm" x2="80mm" y1="35.75766604868044mm" y2="48.42842127464334mm"/>
  <line class="l" x1="0mm" x2="80mm" y1="41.15704637065777mm" y2="56.70747110167525mm"/>
  <line class="l" x1="0mm" x2="80mm" y1="43.883484250503315mm" y2="60.88800918410509mm"/>
  <line class="l" x1="0mm" x2="80mm" y1="46.63022866883447mm" y2="65.09968395887952mm"/>
  <line class="l" x1="0mm" x2="80mm" y1="49.39920042647711mm" y2="69.34544065393156mm"/>
  <line class="l" x1="0mm" x2="80mm" y1="55.01180786382119mm" y2="77.95143872452583mm"/>
  <line class="l" x1="0mm" x2="80mm" y1="57.85960221879906mm" y2="82.3180567354919mm"/>
  <line class="l" x1="0mm" x2="80mm" y1="60.73795443493594mm" y2="86.73153013356844mm"/>
  <line class="l" x1="0mm" x2="80mm" y1="63.64914199344979mm" y2="91.19535105662301mm"/>
  <line class="l" x1="0mm" x2="80mm" y1="69.57960525531237mm" y2="100.28872805814562mm"/>
  <line class="l" x1="0mm" x2="80mm" y1="72.60393387527353mm" y2="104.92603194208607mm"/>
  <line class="l" x1="0mm" x2="80mm" y1="75.67122243144071mm" y2="109.6292077282091mm"/>
  <line class="l" x1="0mm" x2="80mm" y1="78.78430279628043mm" y2="114.40259762096332mm"/>
  <line class="l" x1="0mm" x2="80mm" y1="85.1598882848792mm" y2="124.17849537014811mm"/>
  <line class="l" x1="0mm" x2="80mm" y1="88.42881742416432mm" y2="129.1908533837186mm"/>
  <line class="l" x1="0mm" x2="80mm" y1="91.75641474922182mm" y2="134.29316928214013mm"/>
  <line class="l" x1="0mm" x2="80mm" y1="95.14635771791535mm" y2="139.49108183413688mm"/>
  <line class="l" x1="0mm" x2="80mm" y1="102.12909285413404mm" y2="150.19794237633886mm"/>
  <line class="l" x1="0mm" x2="80mm" y1="105.73040278639913mm" y2="155.71995093914532mm"/>
  <line class="l" x1="0mm" x2="80mm" y1="109.41113897962657mm" y2="161.36374643542743mm"/>
  <line class="l" x1="0mm" x2="80mm" y1="113.17627752636402mm" y2="167.13695887375815mm"/>
  <line class="l" x1="0mm" x2="80mm" y1="120.98137920080414mm" y2="179.104781441233mm"/>
  <line class="l" x1="0mm" x2="80mm" y1="125.03310751541913mm" y2="185.31743152364265mm"/>
  <line class="l" x1="0mm" x2="80mm" y1="129.19284397600762mm" y2="191.69569409654503mm"/>
  <line class="l" x1="0mm" x2="80mm" y1="133.46760497925106mm" y2="198.25032763485163mm"/>
  <line class="l" x1="0mm" x2="80mm" y1="142.393010672434mm" y2="211.93594969773213mm"/>
  <line class="l" x1="0mm" x2="80mm" y1="147.060606644676mm" y2="219.09293018850317mm"/>
  <line class="l" x1="0mm" x2="80mm" y1="151.87726292064926mm" y2="226.4784698116622mm"/>
  <line class="l" x1="0mm" x2="80mm" y1="156.85331622106108mm" y2="234.108418205627mm"/>
  <line class="l" x1="0mm" x2="80mm" y1="167.3295470685854mm" y2="250.17197217183096mm"/>
  <line class="l" x1="0mm" x2="80mm" y1="172.8553065037024mm" y2="258.644803305677mm"/>
  <line class="l" x1="0mm" x2="80mm" y1="178.59187722437892mm" y2="267.44087841071433mm"/>
  <line class="l" x1="0mm" x2="80mm" y1="184.55526108315138mm" y2="276.5847336608321mm"/>
  <line class="l" x1="0mm" x2="12mm" y1="13.309030168613818mm" y2="13.413752582102923mm"/>
  <line class="l" x1="68mm" x2="80mm" y1="13.902457178385417mm" y2="14.007179591874522mm"/>
  <line class="l" x1="0mm" x2="12mm" y1="15.927888235378038mm" y2="16.242119294208283mm"/>
  <line class="l" x1="68mm" x2="80mm" y1="17.70853090208275mm" y2="18.022761960912995mm"/>
  <line class="l" x1="0mm" x2="12mm" y1="18.54914143627681mm" y2="19.073072751178955mm"/>
  <line class="l" x1="68mm" x2="80mm" y1="21.51808555405563mm" y2="22.042016868957774mm"/>
  <line class="l" x1="0mm" x2="12mm" y1="21.174393022572644mm" y2="21.90834446437846mm"/>
  <line class="l" x1="68mm" x2="80mm" y1="25.33345119280558mm" y2="26.06740263461139mm"/>
  <line class="l" x1="0mm" x2="12mm" y1="23.80525602369277mm" y2="24.74967650558819mm"/>
  <line class="l" x1="68mm" x2="80mm" y1="29.15697208776682mm" y2="30.101392569662245mm"/>
  <line class="l" x1="0mm" x2="12mm" y1="26.44335722963079mm" y2="27.59882580800125mm"/>
  <line class="l" x1="68mm" x2="80mm" y1="32.99101250706342mm" y2="34.14648108543388mm"/>
  <line class="l" x1="0mm" x2="12mm" y1="29.090341245246822mm" y2="30.45756854486657mm"/>
  <line class="l" x1="68mm" x2="80mm" y1="36.83796260975872mm" y2="38.20518990937846mm"/>
  <line class="l" x1="0mm" x2="12mm" y1="31.747874638109376mm" y2="33.327704609158125mm"/>
  <line class="l" x1="68mm" x2="80mm" y1="40.70024447405229mm" y2="42.28007444510104mm"/>
  <line class="l" x1="0mm" x2="12mm" y1="34.417650202369174mm" y2="36.21106221855871mm"/>
  <line class="l" x1="68mm" x2="80mm" y1="44.580318294109865mm" y2="46.37373031029939mm"/>
  <line class="l" x1="0mm" x2="12mm" y1="37.10139136221294mm" y2="39.10950267118997mm"/>
  <line class="l" x1="68mm" x2="80mm" y1="48.480688779749464mm" y2="50.4888000887265mm"/>
  <line class="l" x1="0mm" x2="12mm" y1="39.80085673973016mm" y2="42.02492527890857mm"/>
  <line class="l" x1="68mm" x2="80mm" y1="52.4039117950745mm" y2="54.62798033425291mm"/>
  <line class="l" x1="0mm" x2="12mm" y1="42.51784491355491mm" y2="44.9592725066393mm"/>
  <line class="l" x1="68mm" x2="80mm" y1="56.352601274366464mm" y2="58.794028867450855mm"/>
  <line class="l" x1="0mm" x2="12mm" y1="45.25419939644099mm" y2="47.914535348156264mm"/>
  <line class="l" x1="68mm" x2="80mm" y1="60.3294364561609mm" y2="62.98977240787618mm"/>
  <line class="l" x1="0mm" x2="12mm" y1="48.011813862017405mm" y2="50.8927589709788mm"/>
  <line class="l" x1="68mm" x2="80mm" y1="64.3371694794653mm" y2="67.21811458842669mm"/>
  <line class="l" x1="0mm" x2="12mm" y1="50.79263765338355mm" y2="53.896048665654234mm"/>
  <line class="l" x1="68mm" x2="80mm" y1="68.37863338958408mm" y2="71.48204440185478mm"/>
  <line class="l" x1="0mm" x2="12mm" y1="53.59868160897576mm" y2="56.92657613769382mm"/>
  <line class="l" x1="68mm" x2="80mm" y1="72.45675060504477mm" y2="75.78464513376284mm"/>
  <line class="l" x1="0mm" x2="12mm" y1="56.43202424431204mm" y2="59.98658618385701mm"/>
  <line class="l" x1="68mm" x2="80mm" y1="76.5745419017335mm" y2="80.12910384127846mm"/>
  <line class="l" x1="0mm" x2="12mm" y1="59.29481833184752mm" y2="63.07840379839533mm"/>
  <line class="l" x1="68mm" x2="80mm" y1="80.7351359756184mm" y2="84.51872144216621mm"/>
  <line class="l" x1="0mm" x2="12mm" y1="62.189297925310974mm" y2="66.20444175933585mm"/>
  <line class="l" x1="68mm" x2="80mm" y1="84.94177965145195mm" y2="88.95692348547682mm"/>
  <line class="l" x1="0mm" x2="12mm" y1="65.1177858796047mm" y2="69.36720874997307mm"/>
  <line class="l" x1="68mm" x2="80mm" y1="89.19784881169217mm" y2="93.44727168206055mm"/>
  <line class="l" x1="0mm" x2="12mm" y1="68.0827019227207mm" y2="72.56931807653837mm"/>
  <line class="l" x1="68mm" x2="80mm" y1="93.50686012768742mm" y2="97.99347628150508mm"/>
  <line class="l" x1="0mm" x2="12mm" y1="71.08657134224137mm" y2="75.81349704962068mm"/>
  <line class="l" x1="68mm" x2="80mm" y1="97.87248368405744mm" y2="102.59940939143675mm"/>
  <line class="l" x1="0mm" x2="12mm" y1="74.13203435596427mm" y2="79.1025971044414mm"/>
  <line class="l" x1="68mm" x2="80mm" y1="102.29855659733472mm" y2="107.26911934581187mm"/>
  <line class="l" x1="0mm" x2="12mm" y1="77.22185624414003mm" y2="82.43960474367124mm"/>
  <line class="l" x1="68mm" x2="80mm" y1="106.78909774148352mm" y2="112.00684624101471mm"/>
  <line class="l" x1="0mm" x2="12mm" y1="80.3589383298877mm" y2="85.82765339627872mm"/>
  <line class="l" x1="68mm" x2="80mm" y1="111.34832370610346mm" y2="116.81703877249447mm"/>
  <line class="l" x1="0mm" x2="12mm" y1="83.54632990472403mm" y2="89.27003629710195mm"/>
  <line class="l" x1="68mm" x2="80mm" y1="115.98066612819892mm" y2="121.70437252057684mm"/>
  <line class="l" x1="0mm" x2="12mm" y1="86.78724120801472mm" y2="92.7702205046559mm"/>
  <line class="l" x1="68mm" x2="80mm" y1="120.69079055564805mm" y2="126.67376985228923mm"/>
  <line class="l" x1="0mm" x2="12mm" y1="90.08505758276193mm" y2="96.33186218938289mm"/>
  <line class="l" x1="68mm" x2="80mm" y1="125.48361702028068mm" y2="131.73042162690163mm"/>
  <line class="l" x1="0mm" x2="12mm" y1="93.44335494576553mm" y2="99.95882334142678mm"/>
  <line class="l" x1="68mm" x2="80mm" y1="130.36434252117925mm" y2="136.87981091684048mm"/>
  <line class="l" x1="0mm" x2="12mm" y1="96.86591672816553mm" y2="103.65519006641877mm"/>
  <line class="l" x1="68mm" x2="80mm" y1="135.33846564493388mm" y2="142.12773898318713mm"/>
  <line class="l" x1="0mm" x2="12mm" y1="100.35675246308264mm" y2="107.42529266012926mm"/>
  <line class="l" x1="68mm" x2="80mm" y1="140.4118135796801mm" y2="147.48035377672673mm"/>
  <line class="l" x1="0mm" x2="12mm" y1="103.92011822098978mm" y2="111.27372767866896mm"/>
  <line class="l" x1="68mm" x2="80mm" y1="145.59057181450515mm" y2="152.94418127218432mm"/>
  <line class="l" x1="0mm" x2="12mm" y1="107.56053912112398mm" y2="115.2053822508139mm"/>
  <line class="l" x1="68mm" x2="80mm" y1="150.88131685603352mm" y2="158.52615998572344mm"/>
  <line class="l" x1="0mm" x2="12mm" y1="111.28283417935373mm" y2="119.22546091370202mm"/>
  <line class="l" x1="68mm" x2="80mm" y1="156.29105234066074mm" y2="164.23367907500906mm"/>
  <line class="l" x1="0mm" x2="12mm" y1="115.09214379024198mm" y2="123.33951529346133mm"/>
  <line class="l" x1="68mm" x2="80mm" y1="161.8272489751517mm" y2="170.07462047837103mm"/>
  <line class="l" x1="0mm" x2="12mm" y1="118.99396018455082mm" y2="127.55347699931488mm"/>
  <line class="l" x1="68mm" x2="80mm" y1="167.4978888015472mm" y2="176.05740561631126mm"/>
  <line class="l" x1="0mm" x2="12mm" y1="122.99416125427312mm" y2="131.87369415461498mm"/>
  <line class="l" x1="68mm" x2="80mm" y1="173.31151435621027mm" y2="182.19104725655214mm"/>
  <line class="l" x1="0mm" x2="12mm" y1="127.09904819684405mm" y2="136.30697205259156mm"/>
  <line class="l" x1="68mm" x2="80mm" y1="179.27728337941335mm" y2="188.48520723516089mm"/>
  <line class="l" x1="0mm" x2="12mm" y1="131.31538750017427mm" y2="140.8606185001882mm"/>
  <line class="l" x1="68mm" x2="80mm" y1="185.4050298335866mm" y2="194.95026083360054mm"/>
  <line class="l" x1="0mm" x2="12mm" y1="135.65045787262437mm" y2="145.5424945024343mm"/>
  <line class="l" x1="68mm" x2="80mm" y1="191.70533210821407mm" y2="201.59736873802402mm"/>
  <line class="l" x1="0mm" x2="12mm" y1="140.11210281951998mm" y2="150.36107104508156mm"/>
  <line class="l" x1="68mm" x2="80mm" y1="198.1895894310357mm" y2="208.43855765659728mm"/>
  <line class="l" x1="0mm" x2="12mm" y1="144.7087896833916mm" y2="155.32549285806292mm"/>
  <line class="l" x1="68mm" x2="80mm" y1="204.87010767319578mm" y2="215.4868108478671mm"/>
  <line class="l" x1="0mm" x2="12mm" y1="149.44967610261352mm" y2="160.4456501908226mm"/>
  <line class="l" x1="68mm" x2="80mm" y1="211.76019593579832mm" y2="222.7561700240074mm"/>
  <line class="l" x1="0mm" x2="12mm" y1="154.34468500723193mm" y2="165.73225980781046mm"/>
  <line class="l" x1="68mm" x2="80mm" y1="218.87427554384374mm" y2="230.26185034442227mm"/>
  <line class="l" x1="0mm" x2="12mm" y1="159.4045894673535mm" y2="171.1969566247418mm"/>
  <line class="l" x1="68mm" x2="80mm" y1="226.22800335922042mm" y2="238.02037051660872mm"/>
  <line class="l" x1="0mm" x2="12mm" y1="164.6411089458188mm" y2="176.85239766148428mm"/>
  <line class="l" x1="68mm" x2="80mm" y1="233.8384116679233mm" y2="246.0497003835888mm"/>
  <line class="l" x1="0mm" x2="12mm" y1="170.0670187921443mm" y2="182.71238029551583mm"/>
  <line class="l" x1="68mm" x2="80mm" y1="241.7240673112497mm" y2="254.36942881462124mm"/>
  <line class="l" x1="0mm" x2="12mm" y1="175.6962751603907mm" y2="188.79197717322197mm"/>
  <line class="l" x1="68mm" x2="80mm" y1="249.90525323310115mm" y2="263.0009552459324mm"/>
  <line class="l" x1="0mm" x2="12mm" y1="181.54415795426291mm" y2="195.10769059060394mm"/>
  <line class="l" x1="68mm" x2="80mm" y1="258.4041762268621mm" y2="271.96770886320314mm"/>
  <line class="l" x1="0mm" x2="12mm" y1="187.62743491688087mm" y2="201.67762971023134mm"/>
  <line class="l" x1="68mm" x2="80mm" y1="267.24520541253355mm" y2="281.295400205884mm"/>
</svg>
